<!-- person-simple icon by Phosphor Icons -->
<svg xmlns="http://www.w3.org/2000/svg" width="1080" height="1145" fill="none" viewBox="0 0 1080 1145"><path fill="#000" d="M540 435.354c157.175.001 291.684 33.678 386.853 67.261 47.634 16.809 85.577 33.638 111.757 46.369 13.08 6.364 23.25 11.704 30.23 15.511a428 428 0 0 1 8.07 4.517c.93.531 1.64.96 2.16 1.263.26.152.48.274.63.365l.27.133.03.033c0 .027-.48.796-17.51 29.163l-17.47 29.196-.03-.033c-.06-.034-.17-.104-.34-.199-.32-.19-.86-.478-1.59-.897-1.47-.841-3.75-2.153-6.81-3.82-6.12-3.334-15.34-8.179-27.41-14.05-24.171-11.758-59.718-27.57-104.61-43.412-82.899-29.254-197.152-58.417-330.212-62.777v213.674l339.746 382.179-50.86 45.17-322.937-363.21L217.063 1145l-50.827-45.17 339.746-382.212V503.977c-133.07 4.358-247.341 33.521-330.245 62.777-44.888 15.841-80.44 31.655-104.612 43.412-12.07 5.872-21.294 10.717-27.407 14.05-3.057 1.667-5.343 2.979-6.81 3.82-.73.418-1.272.708-1.595.897-.16.094-.274.165-.332.199l-.033.033c.007-.004.028-.03-17.474-29.196C.921 572.385.038 570.892 0 570.806l.066-.066c.05-.029.126-.056.2-.1.153-.091.372-.213.631-.365.518-.305 1.258-.727 2.193-1.263 1.87-1.072 4.552-2.615 8.039-4.517 6.98-3.807 17.144-9.146 30.23-15.511 26.173-12.731 64.121-29.56 111.755-46.369C248.285 469.03 382.815 435.354 540 435.354m96.605-270.739c-.003-53.342-43.256-96.584-96.605-96.59-53.355 0-96.636 43.245-96.639 96.59 0 53.349 43.282 96.591 96.639 96.591 53.351-.007 96.605-43.246 96.605-96.591m68.036 0c0 90.914-73.715 164.609-164.641 164.616-90.932 0-164.674-73.698-164.674-164.616C375.329 73.7 449.07 0 540 0c90.924.006 164.638 73.704 164.641 164.615"/></svg>